# xmcd
#
# Track frame offsets:
#	150
#	16755
#	28685
#	49252
#	66927
#	81222
#	95625
#	112030
#	128217
#	144235
#	171985
#
# Disc length: 2485 seconds
#
# Revision: 1
# Processed by: cddbd v1.4PL0 Copyright (c) Steve Scherf et al.
# Submitted via: audiograbber 1.80
#
DISCID=9509b30b
DTITLE=Vision - Just Short Of Living
DYEAR=1900
DGENRE=
TTITLE0=Tribute
TTITLE1=Able Mind
TTITLE2=Youv'e Been Assessed
TTITLE3=Anomie
TTITLE4=Pick It Up
TTITLE5=Escape
TTITLE6=Lost
TTITLE7=Face
TTITLE8=Animosity Overkill
TTITLE9=The Stranger
TTITLE10=Instrumental
EXTD=
EXTT0=
EXTT1=
EXTT2=
EXTT3=
EXTT4=
EXTT5=
EXTT6=
EXTT7=
EXTT8=
EXTT9=
EXTT10=
PLAYORDER=
